<?xml version="1.0" encoding="UTF-8"?>
<svg id="Camada_1" xmlns="http://www.w3.org/2000/svg" xmlns:xlink="http://www.w3.org/1999/xlink" viewBox="0 0 1671.43 1357.71">
  <defs>
    <style>
      .cls-1 {
        stroke: #101b2c;
        stroke-width: 16px;
      }

      .cls-1, .cls-2 {
        fill: none;
      }

      .cls-1, .cls-3 {
        stroke-miterlimit: 10;
      }

      .cls-4, .cls-3 {
        fill: #fff;
      }

      .cls-3 {
        stroke: #fff;
        stroke-width: 4px;
      }

      .cls-5 {
        fill: #0f1b2c;
      }

      .cls-6 {
        clip-path: url(#clippath);
      }
    </style>
    <clipPath id="clippath">
      <polygon class="cls-2" points="770.44 631.3 670 593.67 -74.43 555.09 -74.43 1484.85 1787.29 1454 1725.57 562.1 998.41 593.67 848.12 668.83 770.44 631.3"/>
    </clipPath>
  </defs>
  <path class="cls-4" d="M838.88,38.57l-156.03,84.7,36.29,16.45-135.42,106.04v268.52c47.14,35.14,94.29,70.29,141.43,105.43-14.1,3.38-28.2,6.76-42.3,10.14H23.65v695.87h1627.28l6.44-689.43c-234.46-2.1-468.91-4.19-703.37-6.29,4.03-6.72,8.05-13.44,12.08-20.16l135.34-62.12,1.73-179.06-2.57-122.89-156.97-80.47,31.43-52.16-136.16-74.57Z"/>
  <g>
    <path class="cls-5" d="M737.38,173.73l-134.07,77.03c-3.61,2.07-5.83,5.91-5.84,10.07l-.43,244.55c0,4.03,2.07,7.77,5.49,9.9l231.99,144.38c3.78,2.36,8.58,2.34,12.35-.03l233.16-146.84c3.38-2.13,5.44-5.85,5.44-9.85v-238.77c0-4.19-2.25-8.05-5.89-10.12l-135.63-77.11c-.24-.13-.47-.28-.7-.43-1.22-.81-2.44-1.63-3.67-2.44-5.98-3.98-6.96-12.38-2.06-17.63,4.52-4.84,9.03-9.68,13.55-14.52,3.88-4.16,10.19-4.9,14.93-1.77,1.96,1.3,3.92,2.6,5.89,3.9.18.12.37.23.55.34l148.47,86.68c3.58,2.09,5.78,5.92,5.77,10.07l-.41,284.92c0,4.06-2.13,7.82-5.6,9.93l-274.97,167.06c-3.69,2.24-8.32,2.26-12.03.04l-269.31-161.36c-3.51-2.1-5.66-5.89-5.66-9.98V235.93c0-4.07,2.13-7.84,5.61-9.95,47.49-28.81,94.98-57.61,142.47-86.42,3.8-2.31,8.59-2.24,12.33.16l20.53,13.2c7.72,4.96,6.93,16.48-1.39,20.35h0c-.3.14-.6.29-.89.46Z"/>
    <rect class="cls-5" x="833.3" y="442.26" width="14.82" height="226.57"/>
    <path class="cls-5" d="M901.36,388.84c0,33.21-26.92,60.14-60.14,60.14s-60.14-26.92-60.14-60.14,26.92-60.14,60.14-60.14,60.14,26.92,60.14,60.14ZM841.22,347.96c-22.57,0-40.87,18.3-40.87,40.87s18.3,40.87,40.87,40.87,40.87-18.3,40.87-40.87-18.3-40.87-40.87-40.87Z"/>
    <g>
      <path class="cls-5" d="M770.44,341.11c0,15.21-12.33,27.55-27.55,27.55s-27.55-12.33-27.55-27.55,12.33-27.55,27.55-27.55,27.55,12.33,27.55,27.55ZM742.9,330.49c-5.86,0-10.62,4.75-10.62,10.62s4.75,10.62,10.62,10.62,10.62-4.75,10.62-10.62-4.75-10.62-10.62-10.62Z"/>
      <path class="cls-5" d="M670.44,286.02c0,15.21-12.33,27.55-27.55,27.55s-27.55-12.33-27.55-27.55,12.33-27.55,27.55-27.55,27.55,12.33,27.55,27.55ZM642.89,275.4c-5.86,0-10.62,4.75-10.62,10.62s4.75,10.62,10.62,10.62,10.62-4.75,10.62-10.62-4.75-10.62-10.62-10.62Z"/>
      <path class="cls-5" d="M635.48,311.29v184.57c0,2.08,1.11,4,2.92,5.04,51.82,29.78,103.64,59.56,155.46,89.33,1.8,1.04,2.92,2.96,2.92,5.04v45.48c0,2.62,1.75,4.92,4.28,5.61l3.19.87c3.7,1.01,7.34-1.77,7.34-5.61v-152.63c0-2.07-1.11-3.99-2.9-5.03l-56.47-32.68c-1.8-1.04-2.9-2.96-2.9-5.03v-76.13c0-3.21-2.6-5.81-5.81-5.81h-3.19c-3.21,0-5.81,2.6-5.81,5.81v85.15c0,2.07,1.11,3.99,2.9,5.03,18.78,10.88,37.57,21.76,56.35,32.64,1.79,1.04,2.89,2.94,2.9,5.01.03,6.29.05,12.57.08,18.86.02,4.48-4.82,7.29-8.7,5.07-29.18-16.71-58.37-33.41-87.55-50.12-1.81-1.04-2.93-2.96-2.92-5.05l.05-134.18c0-3.21-2.6-5.81-5.81-5.81h-3.19c-3.21,0-5.81,2.6-5.81,5.81v143.82c0,2.09,1.12,4.01,2.93,5.05,36.04,20.57,72.08,41.15,108.12,61.72,1.81,1.03,2.93,2.96,2.93,5.05,0,5.31,0,10.63,0,15.94,0,4.48-4.84,7.27-8.72,5.03l-134.91-77.92c-1.8-1.04-2.91-2.96-2.91-5.04.02-58.3.04-116.59.06-174.89,0-3.21-2.6-5.81-5.81-5.81h-3.19c-3.21,0-5.81,2.6-5.81,5.81Z"/>
    </g>
    <g>
      <path class="cls-5" d="M938.53,313.56c15.21,0,27.55,12.33,27.55,27.55,0,15.21-12.33,27.55-27.55,27.55-15.21,0-27.55-12.33-27.55-27.55,0-15.21,12.33-27.55,27.55-27.55ZM927.92,341.11c0,5.86,4.75,10.62,10.62,10.62s10.62-4.75,10.62-10.62-4.75-10.62-10.62-10.62c-5.86,0-10.62,4.75-10.62,10.62Z"/>
      <path class="cls-5" d="M1038.54,258.47c15.21,0,27.55,12.33,27.55,27.55,0,15.21-12.33,27.55-27.55,27.55-15.21,0-27.55-12.33-27.55-27.55,0-15.21,12.33-27.55,27.55-27.55ZM1027.92,286.02c0,5.86,4.75,10.62,10.62,10.62,5.86,0,10.62-4.75,10.62-10.62s-4.75-10.62-10.62-10.62c-5.86,0-10.62,4.75-10.62,10.62Z"/>
      <path class="cls-5" d="M1045.95,311.29v184.57c0,2.08-1.11,4-2.92,5.04-51.82,29.78-103.64,59.56-155.46,89.33-1.8,1.04-2.92,2.96-2.92,5.04v38.74s0,6.74,0,6.74c0,2.62-1.75,4.92-4.28,5.61l-3.19.87c-3.7,1.01-7.34-1.77-7.34-5.61v-152.63c0-2.07,1.11-3.99,2.9-5.03l56.47-32.68c1.8-1.04,2.9-2.96,2.9-5.03v-76.13c0-3.21,2.6-5.81,5.81-5.81h3.19c3.21,0,5.81,2.6,5.81,5.81v85.15c0,2.07-1.11,3.99-2.9,5.03-18.78,10.88-37.57,21.76-56.35,32.64-1.79,1.04-2.89,2.94-2.9,5.01-.03,6.29-.05,12.57-.08,18.86-.02,4.48,4.82,7.29,8.7,5.07,29.18-16.71,58.37-33.41,87.55-50.12,1.81-1.04,2.93-2.96,2.92-5.05l-.05-134.18c0-3.21,2.6-5.81,5.81-5.81h3.19c3.21,0,5.81,2.6,5.81,5.81v143.82c0,2.09-1.12,4.01-2.93,5.05-36.04,20.57-72.08,41.15-108.12,61.72-1.81,1.03-2.93,2.96-2.93,5.05,0,5.31,0,10.63,0,15.94,0,4.48,4.84,7.27,8.72,5.03l134.91-77.92c1.8-1.04,2.91-2.96,2.91-5.04-.02-58.3-.04-116.59-.06-174.89,0-3.21,2.6-5.81,5.81-5.81h3.19c3.21,0,5.81,2.6,5.81,5.81Z"/>
    </g>
    <path class="cls-5" d="M836.66,24.14l-163.84,91.73c-3.69,2.06-3.77,7.34-.15,9.52l62.44,37.6c1.64.99,2.65,2.76,2.66,4.68l.37,56.43c0,1.29.47,2.53,1.3,3.52,8.08,9.59,43.07,47.25,100.23,47.78,58.43.54,94.51-38.15,102.64-47.76.84-1,1.3-2.25,1.3-3.56v-58.78c0-1.95,1.03-3.75,2.71-4.74l59.04-34.81c3.65-2.15,3.6-7.45-.09-9.53l-163.21-92.07c-1.67-.94-3.72-.95-5.39,0ZM918.47,214.77c-.05,1.36-.59,2.65-1.53,3.63-7.45,7.73-34.87,33.18-77.27,32.82-40.9-.35-67.33-24.48-74.88-32.2-1-1.02-1.56-2.39-1.57-3.81-.06-8.69-.12-17.39-.19-26.08-.03-4.28,4.62-6.95,8.3-4.78,21.8,12.86,43.59,25.71,65.39,38.57,1.73,1.02,3.89,1.02,5.62-.01,22.92-13.67,45.83-27.35,68.75-41.02,3.74-2.23,8.47.56,8.32,4.91-.31,9.33-.63,18.65-.94,27.98ZM836.01,194c-37.61-22.74-75.23-45.48-112.84-68.22-3.61-2.18-3.52-7.44.15-9.51,37.77-21.27,75.55-42.54,113.32-63.81,1.68-.95,3.74-.94,5.42,0,37.46,21.26,74.92,42.53,112.38,63.79,3.66,2.08,3.73,7.32.13,9.5-37.62,22.75-75.25,45.49-112.87,68.24-1.75,1.06-3.94,1.06-5.69,0Z"/>
    <rect class="cls-5" x="694.02" y="188.02" width="14.78" height="115.49" transform="translate(563.55 -484.56) rotate(60)"/>
    <rect class="cls-5" x="967.65" y="188.02" width="14.78" height="115.49" transform="translate(1675.4 -475.76) rotate(120)"/>
    <path class="cls-5" d="M682.84,396.39v-87.08c0-1.98,1.06-3.81,2.78-4.79l94.96-54.26c2.63-1.5,5.97-.61,7.5,2,.57.98,1.15,1.96,1.72,2.94,1.54,2.63.66,6.01-1.97,7.55-29.21,17.14-58.41,34.28-87.62,51.42-1.69.99-2.73,2.81-2.73,4.77.03,25.82.06,51.64.08,77.45,0,3.05-2.47,5.53-5.52,5.53h-3.69c-3.05,0-5.52-2.47-5.52-5.52Z"/>
    <path class="cls-5" d="M998.41,399.37v-87.08c0-1.98-1.06-3.81-2.78-4.79l-94.96-54.26c-2.63-1.5-5.97-.61-7.5,2-.57.98-1.15,1.96-1.72,2.94-1.54,2.63-.66,6.01,1.97,7.55,29.21,17.14,58.41,34.28,87.62,51.42,1.69.99,2.73,2.81,2.73,4.77-.03,25.82-.06,51.64-.08,77.45,0,3.05,2.47,5.53,5.52,5.53h3.69c3.05,0,5.52-2.47,5.52-5.52Z"/>
  </g>
  <g class="cls-6">
    <g>
      <rect class="cls-1" x="17.21" y="629.85" width="1640.16" height="695.87" rx="6.44" ry="6.44"/>
      <g>
        <path class="cls-5" d="M263.72,1006.67H100.39v-281.25h163.33v64.42h-90.82v42.95h90.82v64.06h-90.82v45.41h90.82v64.42Z"/>
        <path class="cls-5" d="M504.83,962.32c0,30.27-17.25,44.35-48.58,44.35h-142.91v-281.25h142.91c29.92,0,48.58,12.32,48.58,44.7v192.19ZM432.32,942.25v-152.07h-46.46v152.07h46.46Z"/>
        <path class="cls-5" d="M749.12,960.91c0,33.44-17.6,45.76-49.63,45.76h-92.22c-32.03,0-49.28-12.32-49.28-45.76v-235.49h72.51v216.83h46.11v-216.83h72.51v235.49Z"/>
        <path class="cls-5" d="M965.6,1006.67h-163.33v-281.25h72.51v216.83h90.82v64.42Z"/>
        <path class="cls-5" d="M1084.22,1006.67h-72.51v-281.25h72.51v281.25Z"/>
        <path class="cls-5" d="M1317.94,1006.67h-131.65c-31.68,0-48.93-11.97-48.93-44.35v-190.79c0-33.44,17.25-46.11,49.28-46.11h106.66v64.42l-83.43.35v152.07h35.55v-81.66h72.51v146.08Z"/>
        <path class="cls-5" d="M1574.55,1006.67h-60.54l-73.92-128.83v128.83h-72.51v-281.25h63.36l71.11,122.85v-122.85h72.51v281.25Z"/>
      </g>
      <rect class="cls-5" x="17.21" y="1079.35" width="1640.16" height="246.37"/>
      <g>
        <path class="cls-3" d="M138.88,1219.82h-25.12l-5.2,12.05h-9.38l23.24-51.39h7.58l23.31,51.39h-9.31l-5.12-12.05ZM135.77,1212.6l-9.46-22.02-9.46,22.02h18.91Z"/>
        <path class="cls-3" d="M171.87,1180.48h9.31v51.39h-9.31v-51.39Z"/>
        <path class="cls-4" d="M238.06,1180.48h33.56v7.43h-24.32v14.08h22.88v7.51h-22.88v22.38h-9.24v-51.39Z"/>
        <path class="cls-4" d="M301.47,1229.31c-3.68-2.14-6.52-5.2-8.52-9.17-2-3.97-3-8.65-3-14.04s.99-10,2.96-13.97c1.97-3.97,4.8-7.01,8.48-9.13,3.68-2.12,8.02-3.18,13.03-3.18s9.35,1.06,13.03,3.18c3.68,2.12,6.5,5.16,8.45,9.13,1.95,3.97,2.92,8.62,2.92,13.97s-.99,10.07-2.96,14.04c-1.97,3.97-4.79,7.03-8.45,9.17-3.66,2.14-7.99,3.21-12.99,3.21s-9.28-1.07-12.96-3.21ZM325.54,1220.18c2.64-3.27,3.97-7.96,3.97-14.08s-1.32-10.72-3.97-13.97c-2.65-3.25-6.35-4.87-11.12-4.87s-8.47,1.61-11.12,4.84c-2.65,3.22-3.97,7.89-3.97,14s1.32,10.8,3.97,14.08c2.64,3.27,6.35,4.91,11.12,4.91s8.47-1.64,11.12-4.91Z"/>
        <path class="cls-4" d="M403.65,1231.87h-9.82l-6.57-17.11c-.58-1.59-1.47-2.69-2.67-3.32-1.2-.62-2.77-.94-4.69-.94h-9.31v21.37h-9.24v-51.39h22.02c5.82,0,10.25,1.28,13.28,3.83,3.03,2.55,4.55,6.21,4.55,10.97,0,3.42-.9,6.32-2.71,8.7-1.8,2.38-4.37,4.08-7.69,5.09,3.03.63,5.22,2.74,6.57,6.35l6.28,16.46ZM382.06,1203.29c3.51,0,6.11-.65,7.79-1.95,1.69-1.3,2.53-3.27,2.53-5.92s-.83-4.54-2.49-5.81c-1.66-1.27-4.27-1.91-7.83-1.91h-11.62v15.59h11.62Z"/>
        <path class="cls-4" d="M491.92,1219.82h-25.12l-5.2,12.05h-9.38l23.24-51.39h7.58l23.32,51.39h-9.31l-5.12-12.05ZM488.82,1212.6l-9.46-22.02-9.46,22.02h18.91Z"/>
        <path class="cls-4" d="M533.4,1229.27c-3.78-2.17-6.68-5.23-8.7-9.2-2.02-3.97-3.03-8.62-3.03-13.97s1.01-9.93,3.03-13.9,4.92-7.03,8.7-9.17c3.78-2.14,8.19-3.21,13.25-3.21,3.46,0,6.72.54,9.78,1.62,3.05,1.08,5.59,2.59,7.62,4.51l-3.03,6.79c-2.31-1.88-4.61-3.24-6.89-4.08s-4.73-1.26-7.33-1.26c-4.96,0-8.79,1.61-11.51,4.84-2.72,3.22-4.08,7.84-4.08,13.86s1.35,10.72,4.04,13.97c2.69,3.25,6.54,4.87,11.55,4.87,2.6,0,5.04-.42,7.33-1.26,2.29-.84,4.58-2.2,6.89-4.08l3.03,6.79c-2.02,1.93-4.56,3.43-7.62,4.51-3.06,1.08-6.32,1.62-9.78,1.62-5.05,0-9.47-1.08-13.25-3.25Z"/>
        <path class="cls-4" d="M618.97,1219.82h-25.12l-5.2,12.05h-9.38l23.24-51.39h7.58l23.32,51.39h-9.31l-5.12-12.05ZM615.87,1212.6l-9.46-22.02-9.46,22.02h18.91Z"/>
        <path class="cls-4" d="M651.96,1180.48h18.91c8.42,0,14.95,2.24,19.6,6.71,4.64,4.48,6.97,10.78,6.97,18.91s-2.32,14.52-6.97,19.02c-4.64,4.5-11.18,6.75-19.6,6.75h-18.91v-51.39ZM670.29,1224.29c11.84,0,17.76-6.06,17.76-18.19s-5.92-18.05-17.76-18.05h-9.02v36.24h9.02Z"/>
        <path class="cls-4" d="M719.95,1180.48h34.36v7.36h-25.26v14.22h23.75v7.36h-23.75v15.09h25.26v7.36h-34.36v-51.39Z"/>
        <path class="cls-4" d="M825.99,1180.48v51.39h-8.23v-31.91l-13.64,31.91h-6.14l-13.71-31.54v31.54h-8.23v-51.39h7.36l17.68,40.21,17.54-40.21h7.36Z"/>
        <path class="cls-4" d="M850.24,1180.48h9.31v51.39h-9.31v-51.39Z"/>
        <path class="cls-4" d="M893.73,1229.27c-3.78-2.17-6.68-5.23-8.7-9.2-2.02-3.97-3.03-8.62-3.03-13.97s1.01-9.93,3.03-13.9,4.92-7.03,8.7-9.17c3.78-2.14,8.19-3.21,13.25-3.21,3.46,0,6.72.54,9.78,1.62,3.05,1.08,5.59,2.59,7.62,4.51l-3.03,6.79c-2.31-1.88-4.61-3.24-6.89-4.08s-4.73-1.26-7.33-1.26c-4.96,0-8.79,1.61-11.51,4.84-2.72,3.22-4.08,7.84-4.08,13.86s1.35,10.72,4.04,13.97c2.69,3.25,6.54,4.87,11.55,4.87,2.6,0,5.04-.42,7.33-1.26,2.29-.84,4.58-2.2,6.89-4.08l3.03,6.79c-2.02,1.93-4.56,3.43-7.62,4.51-3.06,1.08-6.32,1.62-9.78,1.62-5.05,0-9.47-1.08-13.25-3.25Z"/>
        <path class="cls-4" d="M1013.02,1219.82h-25.12l-5.2,12.05h-9.38l23.24-51.39h7.58l23.31,51.39h-9.31l-5.12-12.05ZM1009.91,1212.6l-9.46-22.02-9.46,22.02h18.91Z"/>
        <path class="cls-4" d="M1051.67,1230.93c-3.44-1.06-6.37-2.57-8.77-4.55l3.18-6.79c2.5,1.88,5.11,3.26,7.83,4.15,2.72.89,5.69,1.34,8.91,1.34,3.56,0,6.32-.62,8.27-1.88,1.95-1.25,2.92-3.01,2.92-5.27,0-1.92-.9-3.4-2.71-4.44-1.8-1.03-4.78-2.01-8.91-2.92-6.45-1.4-11.14-3.2-14.08-5.41-2.94-2.21-4.4-5.44-4.4-9.67,0-3.03.82-5.73,2.45-8.08,1.64-2.36,3.96-4.21,6.97-5.56,3.01-1.35,6.48-2.02,10.43-2.02,3.61,0,7.04.54,10.29,1.62,3.25,1.08,5.91,2.59,7.98,4.51l-3.11,6.79c-4.57-3.66-9.62-5.49-15.16-5.49-3.32,0-5.94.69-7.87,2.06-1.93,1.37-2.89,3.24-2.89,5.59,0,2.02.85,3.56,2.56,4.62,1.71,1.06,4.63,2.04,8.77,2.96,4.28,1.01,7.77,2.11,10.47,3.29,2.69,1.18,4.76,2.7,6.21,4.55,1.44,1.85,2.17,4.18,2.17,6.97,0,3.08-.82,5.76-2.46,8.05-1.63,2.29-3.99,4.05-7.07,5.31-3.08,1.25-6.71,1.88-10.9,1.88-3.95,0-7.64-.53-11.08-1.59Z"/>
        <path class="cls-4" d="M1111.15,1230.93c-3.44-1.06-6.36-2.57-8.77-4.55l3.18-6.79c2.5,1.88,5.11,3.26,7.83,4.15,2.72.89,5.69,1.34,8.91,1.34,3.56,0,6.32-.62,8.27-1.88,1.95-1.25,2.92-3.01,2.92-5.27,0-1.92-.9-3.4-2.71-4.44-1.8-1.03-4.78-2.01-8.91-2.92-6.45-1.4-11.14-3.2-14.08-5.41-2.94-2.21-4.4-5.44-4.4-9.67,0-3.03.82-5.73,2.46-8.08,1.63-2.36,3.96-4.21,6.96-5.56,3.01-1.35,6.48-2.02,10.43-2.02,3.61,0,7.04.54,10.29,1.62,3.25,1.08,5.91,2.59,7.98,4.51l-3.1,6.79c-4.57-3.66-9.62-5.49-15.16-5.49-3.32,0-5.94.69-7.87,2.06-1.92,1.37-2.89,3.24-2.89,5.59,0,2.02.85,3.56,2.56,4.62,1.71,1.06,4.63,2.04,8.77,2.96,4.28,1.01,7.77,2.11,10.47,3.29s4.77,2.7,6.21,4.55c1.44,1.85,2.16,4.18,2.16,6.97,0,3.08-.82,5.76-2.45,8.05-1.64,2.29-3.99,4.05-7.07,5.31-3.08,1.25-6.71,1.88-10.9,1.88-3.95,0-7.64-.53-11.08-1.59Z"/>
        <path class="cls-4" d="M1164.31,1180.48h34.36v7.36h-25.27v14.22h23.75v7.36h-23.75v15.09h25.27v7.36h-34.36v-51.39Z"/>
        <path class="cls-4" d="M1225.85,1230.93c-3.44-1.06-6.37-2.57-8.77-4.55l3.18-6.79c2.5,1.88,5.11,3.26,7.83,4.15,2.72.89,5.69,1.34,8.91,1.34,3.56,0,6.32-.62,8.27-1.88,1.95-1.25,2.92-3.01,2.92-5.27,0-1.92-.9-3.4-2.71-4.44-1.8-1.03-4.78-2.01-8.91-2.92-6.45-1.4-11.14-3.2-14.08-5.41-2.94-2.21-4.4-5.44-4.4-9.67,0-3.03.82-5.73,2.45-8.08,1.64-2.36,3.96-4.21,6.97-5.56,3.01-1.35,6.48-2.02,10.43-2.02,3.61,0,7.04.54,10.29,1.62,3.25,1.08,5.91,2.59,7.98,4.51l-3.11,6.79c-4.57-3.66-9.62-5.49-15.16-5.49-3.32,0-5.94.69-7.87,2.06-1.93,1.37-2.89,3.24-2.89,5.59,0,2.02.85,3.56,2.56,4.62,1.71,1.06,4.63,2.04,8.77,2.96,4.28,1.01,7.77,2.11,10.47,3.29,2.69,1.18,4.76,2.7,6.21,4.55,1.44,1.85,2.17,4.18,2.17,6.97,0,3.08-.82,5.76-2.46,8.05-1.63,2.29-3.99,4.05-7.07,5.31-3.08,1.25-6.71,1.88-10.9,1.88-3.95,0-7.64-.53-11.08-1.59Z"/>
        <path class="cls-4" d="M1285.33,1230.93c-3.44-1.06-6.36-2.57-8.77-4.55l3.18-6.79c2.5,1.88,5.11,3.26,7.83,4.15,2.72.89,5.69,1.34,8.91,1.34,3.56,0,6.32-.62,8.27-1.88,1.95-1.25,2.92-3.01,2.92-5.27,0-1.92-.9-3.4-2.71-4.44-1.8-1.03-4.78-2.01-8.91-2.92-6.45-1.4-11.14-3.2-14.08-5.41-2.94-2.21-4.4-5.44-4.4-9.67,0-3.03.82-5.73,2.46-8.08,1.63-2.36,3.96-4.21,6.96-5.56,3.01-1.35,6.48-2.02,10.43-2.02,3.61,0,7.04.54,10.29,1.62,3.25,1.08,5.91,2.59,7.98,4.51l-3.1,6.79c-4.57-3.66-9.62-5.49-15.16-5.49-3.32,0-5.94.69-7.87,2.06-1.92,1.37-2.89,3.24-2.89,5.59,0,2.02.85,3.56,2.56,4.62,1.71,1.06,4.63,2.04,8.77,2.96,4.28,1.01,7.77,2.11,10.47,3.29s4.77,2.7,6.21,4.55c1.44,1.85,2.16,4.18,2.16,6.97,0,3.08-.82,5.76-2.45,8.05-1.64,2.29-3.99,4.05-7.07,5.31-3.08,1.25-6.71,1.88-10.9,1.88-3.95,0-7.64-.53-11.08-1.59Z"/>
        <path class="cls-4" d="M1388.58,1180.48v51.39h-8.23v-31.91l-13.64,31.91h-6.13l-13.71-31.54v31.54h-8.23v-51.39h7.36l17.69,40.21,17.54-40.21h7.36Z"/>
        <path class="cls-4" d="M1412.84,1180.48h34.36v7.36h-25.26v14.22h23.75v7.36h-23.75v15.09h25.26v7.36h-34.36v-51.39Z"/>
        <path class="cls-4" d="M1512.09,1180.48v51.39h-6.93l-27.72-36.02v36.02h-8.66v-51.39h6.93l27.65,35.95v-35.95h8.73Z"/>
        <path class="cls-4" d="M1548.32,1188.13h-16.75v-7.65h42.95v7.65h-16.82v43.74h-9.38v-43.74Z"/>
      </g>
    </g>
  </g>
</svg>