<?xml version="1.0" encoding="UTF-8"?>
<svg id="Camada_1" xmlns="http://www.w3.org/2000/svg" viewBox="0 0 1711.93 494.33">
  <defs>
    <style>
      .cls-1 {
        fill: #fff;
        stroke: #101b2c;
        stroke-miterlimit: 10;
        stroke-width: 16px;
      }

      .cls-2 {
        fill: #0f1b2c;
      }
    </style>
  </defs>
  <rect class="cls-1" x="9.39" y="10.86" width="1692.25" height="476.48" rx="66.85" ry="66.85"/>
  <g>
    <path class="cls-2" d="M279.52,387.51H116.19V106.26h163.33v64.42h-90.82v42.94h90.82v64.06h-90.82v45.41h90.82v64.42Z"/>
    <path class="cls-2" d="M520.63,343.16c0,30.27-17.25,44.35-48.58,44.35h-142.91V106.26h142.91c29.92,0,48.58,12.32,48.58,44.71v192.19ZM448.12,323.1v-152.07h-46.46v152.07h46.46Z"/>
    <path class="cls-2" d="M764.92,341.75c0,33.44-17.6,45.76-49.63,45.76h-92.23c-32.03,0-49.28-12.32-49.28-45.76V106.26h72.51v216.83h46.11V106.26h72.51v235.49Z"/>
    <path class="cls-2" d="M981.4,387.51h-163.33V106.26h72.51v216.83h90.82v64.42Z"/>
    <path class="cls-2" d="M1100.02,387.51h-72.51V106.26h72.51v281.25Z"/>
    <path class="cls-2" d="M1333.74,387.51h-131.65c-31.68,0-48.93-11.97-48.93-44.35v-190.79c0-33.44,17.25-46.11,49.28-46.11h106.66v64.42l-83.42.35v152.07h35.55v-81.67h72.51v146.08Z"/>
    <path class="cls-2" d="M1590.35,387.51h-60.54l-73.92-128.83v128.83h-72.51V106.26h63.36l71.11,122.85v-122.85h72.51v281.25Z"/>
  </g>
</svg>